<?xml version="1.0" encoding="UTF-8" standalone="no"?>
<!-- Created with Inkscape (http://www.inkscape.org/) -->

<svg
   width="258.09839"
   height="222.933"
   viewBox="0 0 258.09839 222.933"
   version="1.1"
   id="svg1"
   xml:space="preserve"
   xmlns="http://www.w3.org/2000/svg"
   xmlns:svg="http://www.w3.org/2000/svg"><defs
     id="defs1" /><g
     id="layer1"
     transform="translate(-165.10312,-140.09333)"><path
       style="fill:#000000;fill-opacity:1;stroke:#00ff00;stroke-width:10;stroke-dasharray:none;stroke-opacity:1"
       d="m 208.57129,154.15429 c 0,0 -80.34058,42.47079 -8.84808,94.85143 0,13.44908 -10.13554,100.26256 94.4975,109.00836 3.69144,-0.1796 112.43118,5.8444 91.66611,-106.5309 -1.41569,-2.12354 77.86312,-47.07179 -6.72454,-98.03673 0,0 20.52755,39.99332 -10.26377,56.62772 -4.84799,-4.35265 -69.36895,-87.77297 -149.70953,0 -1.06177,0.35392 -30.43739,-22.65109 -10.61769,-55.91988 z"
       id="path1" /><path
       style="fill:#00ff2a;fill-opacity:1;stroke:#00ff2a;stroke-width:5;stroke-dasharray:none;stroke-opacity:1"
       d="m 214.51471,289.22837 59.1267,0.41156 c 0,0 -4.11555,-25.37921 -30.0435,-25.37921 -25.92795,0 -29.0832,24.96765 -29.0832,24.96765 z"
       id="path2" /><path
       style="fill:#00ff2a;fill-opacity:1;stroke:#00ff2a;stroke-width:5;stroke-dasharray:none;stroke-opacity:1"
       d="m 312.73333,289.41482 59.1267,0.41156 c 0,0 -4.11555,-25.37921 -30.0435,-25.37921 -25.92795,0 -29.0832,24.96765 -29.0832,24.96765 z"
       id="path2-2" /><path
       style="fill:#00ff2a;fill-opacity:1;stroke:#00ff2a;stroke-width:4.65546;stroke-dasharray:none;stroke-opacity:1"
       d="m 321.28291,308.47704 -55.05236,-0.38321 c 0,0 3.83195,23.63036 27.97324,23.63036 24.14129,0 27.07912,-23.24715 27.07912,-23.24715 z"
       id="path2-0" /></g></svg>
